<?xml version="1.0" encoding="utf-8"?>
<!-- Generator: Adobe Illustrator 23.0.3, SVG Export Plug-In . SVG Version: 6.00 Build 0)  -->
<svg version="1.1" id="Calque_1" xmlns="http://www.w3.org/2000/svg" xmlns:xlink="http://www.w3.org/1999/xlink" x="0px" y="0px"
	 viewBox="0 0 50 50" style="enable-background:new 0 0 50 50;" xml:space="preserve">
<style type="text/css">
	.st0{fill-rule:evenodd;clip-rule:evenodd;fill:#FFFFFF;}
</style>
<path class="st0" d="M24.75,5.08c-11.63,0-21.06,9.3-21.06,20.76c0,9.17,6.03,16.96,14.4,19.7c1.05,0.19,1.44-0.45,1.44-1
	c0-0.49-0.02-1.8-0.03-3.53c-5.86,1.25-7.09-2.78-7.09-2.78c-0.96-2.4-2.34-3.04-2.34-3.04c-1.91-1.29,0.14-1.26,0.14-1.26
	c2.11,0.15,3.23,2.14,3.23,2.14c1.88,3.17,4.93,2.26,6.13,1.73c0.19-1.34,0.74-2.26,1.34-2.78c-4.68-0.52-9.59-2.31-9.59-10.26
	c0-2.27,0.82-4.12,2.17-5.57c-0.22-0.53-0.94-2.64,0.21-5.5c0,0,1.77-0.56,5.79,2.13c1.68-0.46,3.48-0.69,5.27-0.7
	c1.79,0.01,3.59,0.24,5.27,0.7c4.02-2.69,5.79-2.13,5.79-2.13c1.15,2.86,0.43,4.97,0.21,5.5c1.35,1.45,2.16,3.3,2.16,5.57
	c0,7.98-4.92,9.73-9.62,10.25c0.76,0.64,1.43,1.91,1.43,3.85c0,2.78-0.03,5.02-0.03,5.7c0,0.56,0.38,1.2,1.45,1
	c8.36-2.75,14.39-10.53,14.39-19.7C45.81,14.37,36.38,5.08,24.75,5.08z"/>
</svg>
