<svg xmlns="http://www.w3.org/2000/svg" viewBox="0 0 50 50"><path d="M24.75 5.08c-11.63 0-21.06 9.3-21.06 20.76 0 9.17 6.03 16.96 14.4 19.7 1.05.19 1.44-.45 1.44-1 0-.49-.02-1.8-.03-3.53-5.86 1.25-7.09-2.78-7.09-2.78-.96-2.4-2.34-3.04-2.34-3.04-1.91-1.29.14-1.26.14-1.26 2.11.15 3.23 2.14 3.23 2.14 1.88 3.17 4.93 2.26 6.13 1.73.19-1.34.74-2.26 1.34-2.78-4.68-.52-9.59-2.31-9.59-10.26 0-2.27.82-4.12 2.17-5.57-.22-.53-.94-2.64.21-5.5 0 0 1.77-.56 5.79 2.13 1.68-.46 3.48-.69 5.27-.7 1.79.01 3.59.24 5.27.7 4.02-2.69 5.79-2.13 5.79-2.13 1.15 2.86.43 4.97.21 5.5 1.35 1.45 2.16 3.3 2.16 5.57 0 7.98-4.92 9.73-9.62 10.25.76.64 1.43 1.91 1.43 3.85 0 2.78-.03 5.02-.03 5.7 0 .56.38 1.2 1.45 1 8.36-2.75 14.39-10.53 14.39-19.7 0-11.49-9.43-20.78-21.06-20.78z" fill-rule="evenodd" clip-rule="evenodd" fill="#fff"/></svg>